<svg width="29" height="25" viewBox="0 0 29 25" fill="none" xmlns="http://www.w3.org/2000/svg">
<g clip-path="url(#clip0_10106_13368)">
<path d="M6.88161 9.2251C6.36943 9.2251 5.95435 9.64018 5.95435 10.1524C5.95435 10.6645 6.36943 11.0815 6.88161 11.0815C7.3938 11.0815 7.80888 10.6665 7.80888 10.1524C7.80888 9.63827 7.3938 9.2251 6.88161 9.2251Z" fill="white"/>
<path d="M16.0494 9.12793C15.4973 9.12793 15.0498 9.57538 15.0498 10.1275C15.0498 10.6797 15.4973 11.1272 16.0494 11.1272C16.6016 11.1272 17.049 10.6797 17.049 10.1275C17.049 9.57538 16.6016 9.12793 16.0494 9.12793Z" fill="white"/>
<path d="M24.3492 0H4.60625C2.61462 0 1 1.61462 1 3.60625V15.3237C1 17.3153 2.61462 18.9299 4.60625 18.9299H11.5788L13.9513 24.5183C13.9513 24.5183 14.115 25.0019 14.5091 25.0019C14.9052 25.0019 15.067 24.5183 15.067 24.5183L17.4395 18.9299H24.3492C26.3408 18.9299 27.9554 17.3153 27.9554 15.3237V3.60625C27.9554 1.61462 26.3408 0 24.3492 0ZM9.46725 10.358C9.45583 12.5 7.24143 12.5609 7.24143 12.5609C6.38462 12.5609 5.90099 11.9935 5.90099 11.9935V12.38H4.28827V5.72734C4.28827 5.72734 4.28066 5.72544 4.28827 5.72353V5.72734C4.38919 5.74257 5.90099 5.72353 5.90099 5.72353V8.26733C6.27989 7.61995 7.37662 7.63138 7.37662 7.63138C9.76428 7.85415 9.46535 10.358 9.46535 10.358H9.46725ZM12.3081 7.83701V12.3915H10.7296V7.88271C10.7296 7.26961 9.96801 7.09825 9.96801 7.09825V5.50838C12.489 5.6112 12.3081 7.83701 12.3081 7.83701ZM16.0495 12.5647C14.5872 12.5647 13.4029 11.4737 13.4029 10.1295C13.4029 8.78522 14.5872 7.69421 16.0495 7.69421C17.5118 7.69421 18.6961 8.78522 18.6961 10.1295C18.6961 11.4737 17.5118 12.5647 16.0495 12.5647ZM24.6976 12.5647C24.6976 12.5647 24.7205 14.8781 22.369 14.8781H21.6531V13.3797H22.0853C22.0853 13.3797 23.0735 13.4711 23.0621 11.9478C23.0621 11.9478 22.8698 12.5647 21.4836 12.5647C21.4836 12.5647 19.5187 12.4238 19.5187 10.5065V9.77913C19.5187 9.77913 19.5644 7.79132 21.7216 7.63328C21.7216 7.63328 22.5727 7.54189 23.0963 8.24638V7.75895H24.6976V12.5666V12.5647Z" fill="white"/>
<path d="M22.1882 9.15088C21.6494 9.15088 21.2114 9.58881 21.2114 10.1276C21.2114 10.6665 21.6494 11.1044 22.1882 11.1044C22.727 11.1044 23.165 10.6665 23.165 10.1276C23.165 9.58881 22.727 9.15088 22.1882 9.15088Z" fill="white"/>
</g>
<defs>
<clipPath id="clip0_10106_13368">
<rect width="26.9535" height="25" fill="white" transform="translate(1)"/>
</clipPath>
</defs>
</svg>
