<svg width="262" height="127" viewBox="0 0 262 127" fill="none" xmlns="http://www.w3.org/2000/svg">
<g filter="url(#filter0_f_1053_1266)">
<path d="M222.791 65.4371H237.985V71.8614H199.872V65.4371H215.066V62.9316C207.083 62.2891 202.125 59.6552 202.125 54.7084C202.125 49.055 208.692 46.2283 218.929 46.2283C229.165 46.2283 235.732 49.055 235.732 54.7084C235.732 59.6552 230.775 62.2891 222.791 62.9316V65.4371ZM211.203 73.9172V79.6991H235.281V85.995H203.091V73.9172H211.203ZM218.929 57.7278C225.173 57.7278 227.813 56.7 227.813 54.7084C227.813 52.7811 225.173 51.8175 218.929 51.8175C212.684 51.8175 210.044 52.7811 210.044 54.7084C210.109 56.7 212.684 57.7278 218.929 57.7278Z" fill="#FF3935"/>
<path d="M155.836 69.0348V75.6519H140.642V85.9308H132.981V75.6519H117.787V69.0348H155.836ZM119.976 66.3366L119.912 59.2698C122.809 58.5631 127.122 56.8928 129.569 55.5437C132.08 54.1303 132.788 52.203 132.788 49.1836V46.4854H140.835V49.1836C140.835 52.203 141.479 54.0018 144.054 55.5437C146.501 56.957 150.814 58.5631 153.711 59.2698L153.647 66.2723C150.557 65.6941 144.891 63.7668 142.058 62.2892C139.87 61.1329 137.745 59.6553 136.844 57.8564C135.942 59.6553 133.818 61.0686 131.629 62.2892C128.732 63.7668 123.066 65.6941 119.976 66.3366Z" fill="white" fill-opacity="0.3"/>
<path d="M159.377 57.2782C159.377 51.0466 164.205 46.4853 171.352 46.4853C178.434 46.4853 183.262 51.0466 183.262 57.2782C183.262 63.574 178.434 68.0711 171.352 68.0711C164.205 68.0068 159.377 63.5098 159.377 57.2782ZM186.932 86.5089V77.1294H162.403V70.7693H194.529V86.5089H186.932ZM175.858 57.2782C175.858 54.5157 174.056 52.5884 171.352 52.5884C168.583 52.5884 166.781 54.58 166.781 57.2782C166.781 60.0406 168.583 62.0322 171.352 62.0322C174.056 61.968 175.858 59.9764 175.858 57.2782ZM186.803 68.5208V46.1641H194.464V68.4565H186.803V68.5208Z" fill="white" fill-opacity="0.3"/>
<path d="M61.2615 57.6637V65.9511C64.4161 70.0627 65.7681 75.5233 64.3517 80.984C62.2915 88.9502 54.759 94.4109 46.5828 94.0255C36.0244 93.4473 28.5563 83.875 30.2302 73.7888C31.7753 64.2807 40.7885 57.8564 50.3168 59.3982C50.8962 59.4625 51.4757 59.591 51.9907 59.7837L53.0208 60.1049L54.1796 57.7922L52.5057 56.7643L52.9564 53.8733C52.377 53.7448 51.8619 53.6163 51.2825 53.5521C38.0202 51.3036 25.466 60.7474 24.114 74.3027C22.9552 85.9308 30.7452 96.7879 42.1405 99.4219C55.4029 102.506 68.4077 93.64 70.5966 80.4058C72.0773 71.4118 68.1501 62.7389 61.2615 57.6637Z" fill="white" fill-opacity="0.3"/>
<path d="M92.228 24L78.515 39.033V47.8986L89.2022 36.2063V73.7887L52.1191 33.0583V81.8833H58.1065V48.541L95.1895 89.2713V36.2063L105.877 47.8986V39.033L92.228 24Z" fill="url(#paint0_linear_1053_1266)"/>
</g>
<g filter="url(#filter1_d_1053_1266)">
<path d="M223.791 71.4373H238.985V77.8617H200.872V71.4373H216.066V68.9318C208.083 68.2894 203.125 65.6554 203.125 60.7087C203.125 55.0552 209.692 52.2285 219.929 52.2285C230.165 52.2285 236.732 55.0552 236.732 60.7087C236.732 65.6554 231.775 68.2894 223.791 68.9318V71.4373ZM212.203 79.9174V85.6994H236.281V91.9952H204.091V79.9174H212.203ZM219.929 63.7281C226.173 63.7281 228.813 62.7002 228.813 60.7087C228.813 58.7813 226.173 57.8177 219.929 57.8177C213.684 57.8177 211.044 58.7813 211.044 60.7087C211.109 62.7002 213.684 63.7281 219.929 63.7281Z" fill="white"/>
<path d="M156.84 75.0348V81.6519H141.646V91.9308H133.985V81.6519H118.791V75.0348H156.84ZM120.98 72.3366L120.916 65.2698C123.813 64.5631 128.126 62.8928 130.573 61.5437C133.083 60.1303 133.792 58.203 133.792 55.1836V52.4854H141.839V55.1836C141.839 58.203 142.483 60.0018 145.058 61.5437C147.505 62.957 151.818 64.5631 154.715 65.2698L154.651 72.2723C151.561 71.6941 145.895 69.7668 143.062 68.2892C140.873 67.1329 138.749 65.6553 137.848 63.8564C136.946 65.6553 134.822 67.0686 132.633 68.2892C129.736 69.7668 124.07 71.6941 120.98 72.3366Z" fill="white"/>
<path d="M160.379 63.2782C160.379 57.0466 165.207 52.4853 172.354 52.4853C179.435 52.4853 184.264 57.0466 184.264 63.2782C184.264 69.574 179.435 74.0711 172.354 74.0711C165.207 74.0068 160.379 69.5098 160.379 63.2782ZM187.934 92.5089V83.1294H163.405V76.7693H195.531V92.5089H187.934ZM176.86 63.2782C176.86 60.5157 175.058 58.5884 172.354 58.5884C169.585 58.5884 167.783 60.58 167.783 63.2782C167.783 66.0406 169.585 68.0322 172.354 68.0322C175.058 67.968 176.86 65.9764 176.86 63.2782ZM187.805 74.5208V52.1641H195.466V74.4565H187.805V74.5208Z" fill="white"/>
<path d="M62.2624 63.6637V71.9511C65.4171 76.0627 66.7691 81.5233 65.3527 86.984C63.2925 94.9502 55.76 100.411 47.5837 100.025C37.0254 99.4473 29.5573 89.875 31.2311 79.7888C32.7763 70.2807 41.7895 63.8564 51.3178 65.3982C51.8972 65.4625 52.4766 65.591 52.9917 65.7837L54.0218 66.1049L55.1806 63.7922L53.5067 62.7643L53.9574 59.8733C53.378 59.7448 52.8629 59.6163 52.2835 59.5521C39.0212 57.3036 26.467 66.7474 25.115 80.3027C23.9562 91.9308 31.7462 102.788 43.1415 105.422C56.4038 108.506 69.4086 99.64 71.5976 86.4058C73.0783 77.4118 69.1511 68.7389 62.2624 63.6637Z" fill="white"/>
<path d="M93.229 30L79.516 45.033V53.8986L90.2032 42.2063V79.7887L53.1201 39.0583V87.8833H59.1075V54.541L96.1905 95.2713V42.2063L106.878 53.8986V45.033L93.229 30Z" fill="white"/>
</g>
<defs>
<filter id="filter0_f_1053_1266" x="-0.0146484" y="0" width="262" height="124" filterUnits="userSpaceOnUse" color-interpolation-filters="sRGB">
<feFlood flood-opacity="0" result="BackgroundImageFix"/>
<feBlend mode="normal" in="SourceGraphic" in2="BackgroundImageFix" result="shape"/>
<feGaussianBlur stdDeviation="12" result="effect1_foregroundBlur_1053_1266"/>
</filter>
<filter id="filter1_d_1053_1266" x="13.001" y="26" width="237.984" height="100.036" filterUnits="userSpaceOnUse" color-interpolation-filters="sRGB">
<feFlood flood-opacity="0" result="BackgroundImageFix"/>
<feColorMatrix in="SourceAlpha" type="matrix" values="0 0 0 0 0 0 0 0 0 0 0 0 0 0 0 0 0 0 127 0" result="hardAlpha"/>
<feOffset dy="8"/>
<feGaussianBlur stdDeviation="6"/>
<feComposite in2="hardAlpha" operator="out"/>
<feColorMatrix type="matrix" values="0 0 0 0 0 0 0 0 0 0 0 0 0 0 0 0 0 0 1 0"/>
<feBlend mode="normal" in2="BackgroundImageFix" result="effect1_dropShadow_1053_1266"/>
<feBlend mode="normal" in="SourceGraphic" in2="effect1_dropShadow_1053_1266" result="shape"/>
</filter>
<linearGradient id="paint0_linear_1053_1266" x1="78.8911" y1="54.2593" x2="91.7541" y2="37.5644" gradientUnits="userSpaceOnUse">
<stop stop-color="white"/>
<stop offset="0.6709" stop-color="#C21B1C"/>
<stop offset="1" stop-color="#D81B17"/>
</linearGradient>
</defs>
</svg>
